<?xml version="1.0" encoding="utf-8"?>
<!-- Generator: Adobe Illustrator 25.2.0, SVG Export Plug-In . SVG Version: 6.00 Build 0)  -->
<svg version="1.1" id="Calque_1" xmlns="http://www.w3.org/2000/svg" xmlns:xlink="http://www.w3.org/1999/xlink" x="0px" y="0px"
	 viewBox="0 0 672 558" style="enable-background:new 0 0 672 558;" xml:space="preserve">
<style type="text/css">
	.st0{fill:#B7DBF9;}
	.st1{fill:url(#SVGID_1_);}
	.st2{fill:#F7931E;}
	.st3{fill:#FFFFFF;stroke:#F39323;stroke-width:2;stroke-miterlimit:10;}
	.st4{fill:#FFFFFF;stroke:#CD3B20;stroke-miterlimit:10;}
	.st5{fill:#FFFFFF;}
	.st6{fill:#CC3C1F;}
	.st7{fill:#FCFCFC;}
	.st8{fill:url(#SVGID_2_);}
	.st9{fill:#E6F0FF;}
	.st10{fill:none;stroke:#58CDFF;stroke-width:1.9236;stroke-linecap:round;stroke-miterlimit:10;}
	.st11{fill:none;stroke:#AB54DB;stroke-width:2.8783;stroke-miterlimit:10;stroke-opacity:0.15;}
	.st12{fill:#464255;}
	.st13{fill:#003049;}
	.st14{fill:none;stroke:#FFFFFF;stroke-width:4.8089;stroke-linecap:round;stroke-miterlimit:10;}
</style>
<path class="st0" d="M106.9,136.4l51.9,111.2l87.9-18.3l-4.5-13.9l-73,16.3L122.9,136c-0.5-1-1.2-1.8-2.1-2.5
	c-2.3-1.7-7.2-4.2-12.8-1C106.8,133.4,106.2,135,106.9,136.4z"/>
<linearGradient id="SVGID_1_" gradientUnits="userSpaceOnUse" x1="293.6985" y1="1.581" x2="293.6985" y2="255.54" gradientTransform="matrix(1 0 0 -1 0 558)">
	<stop  offset="0" style="stop-color:#B7DBF9;stop-opacity:0"/>
	<stop  offset="1" style="stop-color:#B7DBF9"/>
</linearGradient>
<path class="st1" d="M377.8,556.4H209.6v-254h168.3V556.4z"/>
<path class="st2" d="M218,405.4l6.8,20.2c0,0-10.5,12.4-10,26.5c0,0,42.5-20.6,41.9-24.1c-0.6-3.5-15-35.4-15-35.4L218,405.4z"/>
<path class="st2" d="M109.6,379.5l-12.4,17.4c0,0-16.1-1.2-27.3,7.5c0,0,41.6,22.4,44.1,19.9c2.5-2.5,19.9-32.9,19.9-32.9
	L109.6,379.5z"/>
<path class="st3" d="M164.2,259c-2.8-5.5-71.3,114.3-70.2,116.7l51.5,26.1l34.8-56.5L164.2,259z"/>
<path class="st3" d="M253.2,225.4c0,0-105.3,9.4-99.3,54.4c0,0-3.2,33.8,49.5,133.5l53.3-18.3l-44.1-91.9l130.7-2
	c0,0,46.2-14.9,31.6-76.9l-60.5-13L253.2,225.4z"/>
<path class="st4" d="M320.7,115.6c0,0,3.1,18,6.2,21.1c3.1,3.1,13,3.1,13,3.1l18-14.3l-13-19.2L320.7,115.6z"/>
<path class="st5" d="M314.2,116.4c-17.4-4.5-28-22.2-23.5-39.7c4.5-17.4,22.2-28,39.7-23.5c17.4,4.5,28,22.2,23.5,39.7
	C349.4,110.4,331.6,120.9,314.2,116.4z"/>
<path class="st6" d="M322.3,52.5C304.5,52.5,290,67,290,84.8c0,17.8,14.5,32.3,32.3,32.3c17.8,0,32.3-14.5,32.3-32.3
	C354.6,67,340.1,52.5,322.3,52.5z M322.3,51.9c18.2,0,32.9,14.7,32.9,32.9c0,18.2-14.7,32.9-32.9,32.9c-18.2,0-32.9-14.7-32.9-32.9
	C289.4,66.7,304.1,51.9,322.3,51.9z"/>
<path class="st7" d="M201.4,219c-2.6,1.1-4.4,7.3-6.6,9.5c-2.2,2.1-5.4,0.4-2.1-4.6 M201.6,225.6c-3.3,4.9-0.9,7.2,1.6,5.5
	c1.1-0.8,2.6-3,3.8-5.1c2.1-3.6,5.6-6.1,9.8-6.7c7.9-1.2,22.9-1.5,47,4.9c39.4,10.4,64.2,9.4,71.3-30.4l-26.8-6.9
	c-0.3,0.7-5,20.6-5,20.6s-72.8-8.4-83.6-8.4c-11.2,0-28.8,15.5-30.9,23.8c-0.4,1.6-0.5,5.4,3.9,1c1.2-1.2,2.2-4.1,5.5-6.7
	 M197.1,225c-3.3,4.9-1,7.1,1.6,5.5c2.5-1.5,2.9-8,6.7-10.8"/>
<path class="st3" d="M201.4,219c-2.6,1.1-4.4,7.3-6.6,9.5c-2.2,2.1-5.4,0.4-2.1-4.6 M201.6,225.6c-3.3,4.9-0.9,7.2,1.6,5.5
	c1.1-0.8,2.6-3,3.8-5.1c2.1-3.6,5.6-6.1,9.8-6.7c7.9-1.2,22.9-1.5,47,4.9c39.4,10.4,64.2,9.4,71.3-30.4l-26.8-6.9
	c-0.3,0.7-5,20.6-5,20.6s-72.8-8.4-83.6-8.4c-11.2,0-28.8,15.5-30.9,23.8c-0.4,1.6-0.5,5.4,3.9,1c1.2-1.2,2.2-4.1,5.5-6.7
	 M197.1,225c-3.3,4.9-1,7.1,1.6,5.5c2.5-1.5,2.9-8,6.7-10.8"/>
<path class="st5" d="M172.9,197.5c-5,1.2-8,7.6-11.2,8.1c-3.3,0.5-4.8-2.6,0.6-6.2 M158.4,196.4c-5.4,3.6-2.9,6.7,0.2,5.4
	c3.1-1.2,7.5-6.8,10.6-6.8 M158.4,196.4c-5.4,3.6-2.9,6.7,0.2,5.4c3.1-1.2,7.5-6.8,10.6-6.8 M166.7,201.9c-5.4,3.6-3.9,6.9-0.6,6.2
	c1.4-0.3,3.8-1.9,6-3.6c3.6-2.8,8.2-3.8,12.6-2.7c8.5,2.1,23.7,7.9,45.4,24.3c35.4,26.7,60.9,36,84.4-1.2l-24.2-18
	c-0.6,0.6-9.9,13.7-9.9,13.7s-73.5-33.4-84.4-37.9c-11.3-4.6-35.4,3.7-41,11.2c-1.1,1.4-2.7,5.3,3.5,2.6c1.6-0.7,3.9-3.2,8.3-4.5"/>
<path class="st3" d="M172.9,197.5c-5,1.2-8,7.6-11.2,8.1c-3.3,0.5-4.8-2.6,0.6-6.2 M158.4,196.4c-5.4,3.6-2.9,6.7,0.2,5.4
	c3.1-1.2,7.5-6.8,10.6-6.8 M166.7,201.9c-5.4,3.6-3.9,6.9-0.6,6.2c1.4-0.3,3.8-1.9,6-3.6c3.6-2.8,8.2-3.8,12.6-2.7
	c8.5,2.1,23.7,7.9,45.4,24.3c35.4,26.7,60.9,36,84.4-1.2l-24.2-18c-0.6,0.6-9.9,13.7-9.9,13.7s-73.5-33.4-84.4-37.9
	c-11.3-4.6-35.4,3.7-41,11.2c-1.1,1.4-2.7,5.3,3.5,2.6c1.6-0.7,3.9-3.2,8.3-4.5"/>
<linearGradient id="SVGID_2_" gradientUnits="userSpaceOnUse" x1="461.0395" y1="1.891" x2="461.0395" y2="211.143" gradientTransform="matrix(1 0 0 -1 0 558)">
	<stop  offset="0" style="stop-color:#EF9A91"/>
	<stop  offset="1" style="stop-color:#EF9A91;stop-opacity:0"/>
</linearGradient>
<path class="st8" d="M521.6,556.1H400.5V346.9h121.1V556.1z"/>
<path class="st9" d="M465.5,378.1c-3.3,0-6-2.7-6-6c0-3.3,2.7-6,6-6c3.3,0,6,2.7,6,6C471.5,375.4,468.8,378.1,465.5,378.1z"/>
<path class="st9" d="M501.2,388.4c-2.3-2.3-2.3-6.2,0-8.5c2.3-2.3,6.2-2.3,8.5,0c2.3,2.3,2.3,6.2,0,8.5
	C507.3,390.7,503.5,390.7,501.2,388.4z"/>
<path class="st9" d="M473.7,413.7c-3.3,0-6-2.7-6-6c0-3.3,2.7-6,6-6c3.3,0,6,2.7,6,6C479.7,411,477,413.7,473.7,413.7z"/>
<path class="st9" d="M480.4,447.4c-2.3-2.3-2.3-6.2,0-8.5c2.3-2.3,6.2-2.3,8.5,0c2.3,2.3,2.3,6.2,0,8.5
	C486.6,449.8,482.8,449.8,480.4,447.4z"/>
<path class="st9" d="M489.2,487.4c-2.3-2.3-2.3-6.2,0-8.5c2.3-2.3,6.2-2.3,8.5,0c2.3,2.3,2.3,6.2,0,8.5
	C495.3,489.7,491.5,489.7,489.2,487.4z"/>
<path class="st9" d="M467.7,516.4c-3.3,0-6-2.7-6-6c0-3.3,2.7-6,6-6c3.3,0,6,2.7,6,6C473.7,513.8,471,516.4,467.7,516.4z"/>
<path class="st9" d="M491.1,527.5c-1.3-3.1,0.2-6.6,3.3-7.8c3.1-1.3,6.6,0.2,7.8,3.3c1.3,3.1-0.2,6.6-3.3,7.8
	C495.9,532,492.4,530.5,491.1,527.5z"/>
<path class="st9" d="M448.2,477c-2.3-2.3-2.3-6.2,0-8.5c2.3-2.3,6.2-2.3,8.5,0c2.3,2.3,2.3,6.2,0,8.5
	C454.3,479.3,450.5,479.3,448.2,477z"/>
<path class="st9" d="M446.4,439.4c-3.3,0-6-2.7-6-6c0-3.3,2.7-6,6-6c3.3,0,6,2.7,6,6C452.4,436.7,449.7,439.4,446.4,439.4z"/>
<path class="st9" d="M414.2,424.4c-2.6-2.1-3-5.9-0.9-8.5c2.1-2.6,5.9-3,8.5-0.9c2.6,2.1,3,5.9,0.9,8.5
	C420.5,426.1,416.7,426.5,414.2,424.4z"/>
<path class="st9" d="M414.2,468.1c-2.6-2.1-3-5.9-0.9-8.5c2.1-2.6,5.9-3,8.5-0.9c2.6,2.1,3,5.9,0.9,8.5
	C420.5,469.8,416.7,470.2,414.2,468.1z"/>
<path class="st9" d="M432.7,503.9c-3.3,0-6-2.7-6-6c0-3.3,2.7-6,6-6c3.3,0,6,2.7,6,6C438.7,501.2,436,503.9,432.7,503.9z"/>
<path class="st9" d="M416.4,530c-3.2-0.8-5.1-4.1-4.3-7.3c0.8-3.2,4.1-5.1,7.3-4.3c3.2,0.8,5.1,4.1,4.3,7.3
	C422.9,528.9,419.7,530.8,416.4,530z"/>
<path class="st9" d="M434.5,398.2c-2.3-2.3-2.3-6.2,0-8.5c2.3-2.3,6.2-2.3,8.5,0c2.3,2.3,2.3,6.2,0,8.5
	C440.6,400.6,436.8,400.6,434.5,398.2z"/>
<path class="st10" d="M427.2,71.8c0,0,34.2,24.2,52.2-16.8c18-41-36.2,5.1,12.5,26.4c22.6,7.5,31.3-21.7,40.6-36.6
	c9.3-14.9,24.2-8.7,26.7,15.5c3.2,28.8,20.3,11.9,29.5,0.5c10.7-13.3,30.5-14.9,42.9-3.2c0.3,0.3,0.6,0.6,0.9,0.9"/>
<path class="st3" d="M670.2,249.1c-22.6-7.5-31.3,21.7-40.6,36.6c-9.3,14.9-24.2,8.7-26.7-15.5c-3.1-28.8-20.3-11.9-29.5-0.5
	c-10.7,13.3-30.5,14.9-42.9,3.2c-0.3-0.3-0.6-0.6-0.9-0.9"/>
<path class="st11" d="M0,556.4h670.6"/>
<path class="st12" d="M422.5,137.2c-24.3,9.3-45.6,12-59-2.4l-27.3-36c3.1,1.9,11.2-11.8,3.1-14.9c-8.1-3.1-9.9,5-9.9,5
	c-16.8,2.5-23.6-16.1-23.6-16.1c-7.5,13-16.1,10.6-16.1,10.6c3.3-33.8,35.4-35.9,56.2-27c-1.4-1.9-2.2-4.1-2.2-6.5
	c0-6.5,5.8-11.8,13-11.8s13,5.3,13,11.8s-5.8,11.8-13,11.8c-0.5,0-1.1,0-1.6-0.1c5.4,4,8.7,8.9,8.4,13.8c-0.4,7.7,8.1,6.2,8.1,6.2
	c23.6-2.5,24.2,14.3,24.2,14.3c1.9,13,9.9,13.7,9.9,13.7c15.1,3.5,20.4,11.2,22.1,17.2C429.2,130.9,426.8,135.6,422.5,137.2z"/>
<path class="st13" d="M324.5,134.8c-0.5,0-1,12.4-1.2,17.3c0,1.2-0.6,2.4-1.5,3.2c-5.7,5-26.5,24.1-36.8,46.3
	c-0.9,1.9-0.3,4.3,1.5,5.5l28.8,20.7c0.7,0.5,1.6,0.8,2.5,0.8l79.9,2.3c2.9,0.1,5.1-2.6,4.5-5.4c-3.4-16.4-14.9-65.2-37.8-92.8
	c-0.2-0.2-0.3-0.5-0.5-0.7l-2.6-4.9c-1.2-2.2-3.9-3-6.1-1.8C348.4,128.9,334.1,135.7,324.5,134.8z"/>
<path class="st14" d="M361.1,139.8v12.6"/>
<path class="st14" d="M331.2,152.3h12.6"/>
<path class="st14" d="M363.1,170.9l-9.1-8.7"/>
<path class="st14" d="M334.5,168.4l1.1,12.5"/>
<path class="st14" d="M320.1,168.7l-11.2,5.6"/>
<path class="st14" d="M313.2,191.4l-12.3-2.5"/>
<path class="st14" d="M320.6,206.7l-7.2,10.3"/>
<path class="st14" d="M354.3,133.9l-11.2,5.6"/>
<path class="st14" d="M381.5,176.8l-8.5,9.3"/>
<path class="st14" d="M359.3,185.2l-12.5-1.2"/>
<path class="st14" d="M345.8,194.6l-10.3,7.2"/>
<path class="st14" d="M383,196.5l-10.3,7.2"/>
<path class="st14" d="M391.3,203.7l0.3,12.6"/>
<path class="st14" d="M366.6,217.1l12.6-0.4"/>
<path class="st14" d="M342,221.4l7.1-10.4"/>
<path class="st6" d="M335.3,88.2c1.8,2.6,0.8,5-1.9,6.3c-0.8,0.4-0.2,1.5,0.6,1.1C336.7,93.8,337.8,90.8,335.3,88.2z"/>
<path class="st6" d="M311.7,115.6c4.4-0.2,8.6-3,9.7-7.4c0-0.1-0.1-0.1-0.1,0c-1.2,4.2-5.4,6.8-9.6,6.8
	C311.3,114.9,311.3,115.6,311.7,115.6z"/>
<path class="st3" d="M61.2,302.1c-4.6,0-8.4-3.8-8.4-8.4c0-4.6,3.8-8.4,8.4-8.4s8.4,3.8,8.4,8.4C69.5,298.4,65.8,302.1,61.2,302.1z"
	/>
<path class="st3" d="M624.3,17.8c-4.6,0-8.4-3.8-8.4-8.4c0-4.6,3.8-8.4,8.4-8.4c4.6,0,8.4,3.8,8.4,8.4C632.7,14,629,17.8,624.3,17.8
	z"/>
<path class="st6" d="M321.6,120.4c0,0,8.1-0.2,13-5.1c0,0-9.3,3.1-13.4,2.2L321.6,120.4z"/>
<image style="overflow:visible;" width="1539" height="811" xlink:href="../../../../../Downloads/Logo-Dorea/Logo-Dorea/1x/Plan de travail 3.png"  transform="matrix(0.2677 0 0 0.2677 707 164.4451)">
</image>
</svg>
